<svg xmlns="http://www.w3.org/2000/svg" viewBox="0 0 100 100">
  <!--
    Thread favicon — a 5×7 contribution grid with a diagonal "thread"
    of darkening commits winding from top-left to bottom-right.
  -->

  <!-- Mon -->
  <rect x="20"   y="7.5"  width="10" height="10" rx="2.5" fill="#9fe1cb"/>
  <rect x="32.5" y="7.5"  width="10" height="10" rx="2.5" fill="#9fe1cb"/>
  <rect x="45"   y="7.5"  width="10" height="10" rx="2.5" fill="#e1f5ee"/>
  <rect x="57.5" y="7.5"  width="10" height="10" rx="2.5" fill="#e1f5ee"/>
  <rect x="70"   y="7.5"  width="10" height="10" rx="2.5" fill="#e1f5ee"/>

  <!-- Tue -->
  <rect x="20"   y="20" width="10" height="10" rx="2.5" fill="#e1f5ee"/>
  <rect x="32.5" y="20" width="10" height="10" rx="2.5" fill="#5dcaa5"/>
  <rect x="45"   y="20" width="10" height="10" rx="2.5" fill="#e1f5ee"/>
  <rect x="57.5" y="20" width="10" height="10" rx="2.5" fill="#e1f5ee"/>
  <rect x="70"   y="20" width="10" height="10" rx="2.5" fill="#e1f5ee"/>

  <!-- Wed -->
  <rect x="20"   y="32.5" width="10" height="10" rx="2.5" fill="#e1f5ee"/>
  <rect x="32.5" y="32.5" width="10" height="10" rx="2.5" fill="#5dcaa5"/>
  <rect x="45"   y="32.5" width="10" height="10" rx="2.5" fill="#5dcaa5"/>
  <rect x="57.5" y="32.5" width="10" height="10" rx="2.5" fill="#e1f5ee"/>
  <rect x="70"   y="32.5" width="10" height="10" rx="2.5" fill="#e1f5ee"/>

  <!-- Thu -->
  <rect x="20"   y="45" width="10" height="10" rx="2.5" fill="#e1f5ee"/>
  <rect x="32.5" y="45" width="10" height="10" rx="2.5" fill="#e1f5ee"/>
  <rect x="45"   y="45" width="10" height="10" rx="2.5" fill="#1d9e75"/>
  <rect x="57.5" y="45" width="10" height="10" rx="2.5" fill="#e1f5ee"/>
  <rect x="70"   y="45" width="10" height="10" rx="2.5" fill="#e1f5ee"/>

  <!-- Fri -->
  <rect x="20"   y="57.5" width="10" height="10" rx="2.5" fill="#e1f5ee"/>
  <rect x="32.5" y="57.5" width="10" height="10" rx="2.5" fill="#e1f5ee"/>
  <rect x="45"   y="57.5" width="10" height="10" rx="2.5" fill="#1d9e75"/>
  <rect x="57.5" y="57.5" width="10" height="10" rx="2.5" fill="#1d9e75"/>
  <rect x="70"   y="57.5" width="10" height="10" rx="2.5" fill="#e1f5ee"/>

  <!-- Sat -->
  <rect x="20"   y="70" width="10" height="10" rx="2.5" fill="#e1f5ee"/>
  <rect x="32.5" y="70" width="10" height="10" rx="2.5" fill="#e1f5ee"/>
  <rect x="45"   y="70" width="10" height="10" rx="2.5" fill="#e1f5ee"/>
  <rect x="57.5" y="70" width="10" height="10" rx="2.5" fill="#0f6e56"/>
  <rect x="70"   y="70" width="10" height="10" rx="2.5" fill="#0f6e56"/>

  <!-- Sun -->
  <rect x="20"   y="82.5" width="10" height="10" rx="2.5" fill="#e1f5ee"/>
  <rect x="32.5" y="82.5" width="10" height="10" rx="2.5" fill="#e1f5ee"/>
  <rect x="45"   y="82.5" width="10" height="10" rx="2.5" fill="#e1f5ee"/>
  <rect x="57.5" y="82.5" width="10" height="10" rx="2.5" fill="#e1f5ee"/>
  <rect x="70"   y="82.5" width="10" height="10" rx="2.5" fill="#0f6e56"/>
</svg>
