<svg xmlns="http://www.w3.org/2000/svg" viewBox="0 0 512 512">
<path fill="#000" opacity="1.000000" stroke="none"
    d="
M513.000000,203.000000
    C513.000000,306.641479 513.000000,409.782959 513.000000,512.962219
    C342.400177,512.962219 171.800339,512.962219 1.100256,512.962219
    C1.100256,342.441895 1.100256,171.883682 1.100256,1.162741
    C171.666534,1.162741 342.333252,1.162741 513.000000,1.162741
    C513.000000,68.199615 513.000000,135.349808 513.000000,203.000000
M28.957111,436.444916
    C28.714361,436.478851 28.471613,436.512817 28.228863,436.546753
    C28.358759,436.829681 28.488653,437.112610 28.569040,438.162903
    C30.557652,442.512329 31.663218,447.661804 34.723888,451.039886
    C40.585472,457.509277 47.003723,463.783997 54.183262,468.686249
    C70.024475,479.502716 88.098907,485.493744 106.619217,489.878632
    C147.823486,499.634186 189.402328,500.541931 231.098846,493.707520
    C254.671005,489.843811 277.505219,483.340637 298.367096,471.197937
    C307.802094,465.706299 316.544342,459.279083 322.538666,449.971985
    C325.117920,445.967407 326.666077,441.298737 328.682709,436.931793
    C328.283630,436.699066 327.884552,436.466339 327.485474,436.233612
    C310.183289,452.749146 289.157104,462.343231 266.647156,469.100494
    C228.505341,480.550415 189.473953,483.374237 149.999557,480.010254
    C105.995522,476.260284 63.843254,466.818329 28.957111,436.444916
M87.996910,29.423672
    C79.741570,32.910950 71.436317,36.286270 63.253048,39.935177
    C59.456280,41.628159 56.073158,42.271942 52.633724,39.222858
    C51.845436,38.524036 49.907734,37.975681 49.271828,38.432903
    C44.312412,41.998775 39.541870,45.827339 34.567165,49.687923
    C38.793308,54.455261 37.738701,58.389729 34.620659,62.699661
    C25.356295,75.505386 25.656879,88.319092 35.367191,100.819847
    C37.701588,103.825081 40.363171,106.653938 43.231812,109.153595
    C59.960880,123.730888 80.113190,131.375427 101.129074,136.992310
    C137.926804,146.827148 175.373550,148.632797 213.104874,144.731705
    C239.193176,142.034409 264.626587,136.377151 288.485107,124.999283
    C300.438568,119.298790 311.640472,112.448166 320.095428,101.971016
    C331.353821,88.019928 331.107300,73.522095 319.514771,59.865749
    C311.270538,50.153770 300.773560,43.468880 289.436829,38.029766
    C264.840179,26.228807 238.651627,20.446848 211.669861,17.751709
    C169.955887,13.585009 128.903259,16.564438 87.996910,29.423672
M183.499527,466.189117
    C201.371262,464.448547 219.385376,463.593292 237.079498,460.748138
    C260.335327,457.008667 282.611969,449.696411 302.692291,436.851807
    C310.894531,431.605133 318.258759,425.406708 323.476715,417.014069
    C328.193329,409.427734 329.868164,401.303009 327.023743,392.671478
    C323.432770,381.774445 315.571625,374.397766 305.791718,367.386200
    C305.791718,371.570312 305.631836,374.847290 305.818970,378.104340
    C306.704712,393.520325 300.554047,405.970001 288.529114,414.916687
    C280.077118,421.205017 270.918945,427.205383 261.163635,430.969696
    C211.284348,450.216797 160.457474,450.562561 109.341774,436.222504
    C92.710899,431.556885 77.221100,424.307617 64.484253,412.192230
    C55.238361,403.397491 49.967812,392.879608 50.672756,379.784790
    C50.881390,375.909271 50.704914,372.013000 50.704914,368.126251
    C50.254223,367.927185 49.803532,367.728149 49.352837,367.529114
    C44.973335,371.779327 40.174301,375.680542 36.293312,380.345490
    C24.842827,394.108917 25.144981,408.688934 36.782394,422.377258
    C38.824699,424.779480 41.068661,427.044586 43.429810,429.135529
    C53.527447,438.077667 65.305412,444.202667 77.760841,449.074921
    C111.443253,462.250580 146.587448,466.607422 183.499527,466.189117
M284.586639,398.035278
    C287.052795,393.111633 289.518921,388.187988 291.985077,383.264374
    C291.500946,382.977753 291.016815,382.691132 290.532684,382.404541
    C289.726593,382.909515 288.940887,383.451111 288.111267,383.913910
    C277.850555,389.638092 268.079102,396.630432 257.227783,400.833679
    C220.196106,415.177887 181.647278,416.600616 142.644577,411.905975
    C138.005844,411.347626 135.328918,407.967651 135.688644,403.724823
    C136.046661,399.502136 139.285721,396.743042 144.011719,397.046631
    C148.658020,397.345062 153.271118,398.151154 157.916962,398.467682
    C190.110275,400.660828 221.808792,398.498566 252.299118,386.936279
    C264.187347,382.428131 275.465302,376.720520 284.053680,366.919586
    C287.996246,362.420380 290.769531,357.367096 290.607758,351.082520
    C284.002136,355.203735 277.925812,359.581848 271.348480,362.994171
    C246.186783,376.047974 218.963425,381.126831 190.971771,382.122864
    C146.530991,383.704224 103.610596,378.531708 64.829613,350.209045
    C66.294357,354.788727 66.506104,358.823578 68.585068,361.274750
    C73.469574,367.033875 78.589523,373.052460 84.829422,377.086121
    C92.545273,382.073822 101.435692,385.284729 109.926178,389.018738
    C114.934395,391.221283 117.233398,394.704010 115.832985,398.999939
    C114.478722,403.154297 110.146126,405.041199 105.172379,403.202240
    C98.950203,400.901672 92.628067,398.690186 86.769196,395.634674
    C79.633255,391.913116 72.934448,387.353424 65.871574,383.049683
    C65.521721,389.851379 68.938232,395.049347 73.271416,399.729309
    C81.259277,408.356384 91.350037,413.936096 102.187561,417.863800
    C149.142273,434.880920 196.660233,435.257629 244.354980,421.353088
    C259.296967,416.997040 273.327942,410.471191 284.586639,398.035278
M378.485687,224.030670
    C358.980713,201.042053 332.953064,200.099808 306.023010,202.311096
    C306.023010,207.679031 306.023010,212.794510 306.023010,218.340912
    C313.367737,218.340912 320.487152,218.298599 327.605896,218.348328
    C356.256653,218.548416 375.500580,236.943542 377.322754,265.423401
    C377.712189,271.509857 378.577454,277.771271 380.514709,283.516754
    C387.849548,305.270386 407.606445,319.311646 430.924835,320.021301
    C449.990570,320.601532 465.175903,331.875427 468.252686,349.830383
    C470.057648,360.363739 469.089844,371.396271 469.014740,382.201813
    C469.003448,383.825439 467.277618,386.593964 465.956482,386.853119
    C459.950623,388.031342 460.962128,392.331116 460.992889,396.359253
    C461.021942,400.161346 460.999115,403.963898 460.999115,407.641113
    C468.788177,410.480927 469.364685,411.297272 469.370941,419.413025
    C469.383026,435.076843 469.304626,450.741241 469.420593,466.404236
    C469.462677,472.092377 472.876678,475.765533 477.635101,475.854370
    C482.563904,475.946320 486.044067,472.057281 486.047485,466.165161
    C486.068665,429.671875 486.294891,393.175293 485.814362,356.688202
    C485.720886,349.589539 483.953827,342.007782 480.999847,335.544098
    C471.068420,313.813049 453.155243,304.108887 429.644165,303.120209
    C409.660706,302.279907 394.417969,286.339508 394.079468,266.390167
    C393.812286,250.642899 388.997955,236.695419 378.485687,224.030670
M141.321167,176.133636
    C163.405075,178.773056 185.538361,178.915039 207.658493,176.928833
    C234.472809,174.521088 260.656189,169.264557 285.367493,158.116821
    C298.831085,152.043121 311.601196,144.782837 320.661530,132.738708
    C324.136414,128.119446 326.284515,122.502090 329.037201,117.339554
    C328.561615,117.059334 328.085999,116.779114 327.610382,116.498894
    C324.476135,119.154617 321.456421,121.961311 318.188599,124.440994
    C299.979736,138.258286 279.190918,146.572754 257.240875,151.983612
    C204.029800,165.100525 150.699799,165.008011 97.586884,151.610641
    C72.196510,145.206070 48.450039,134.980209 28.953693,116.695038
    C28.852760,116.600388 28.521505,116.751312 26.864462,117.019775
    C30.190664,122.925209 32.467335,129.021118 36.485020,133.584091
    C41.586853,139.378357 47.589371,144.732819 54.096027,148.874924
    C80.375473,165.604263 109.975441,172.280533 141.321167,176.133636
M97.726059,273.878265
    C87.081757,268.264160 76.437454,262.650085 65.871132,257.077118
    C65.391449,262.581329 68.515701,267.550049 72.468849,272.050171
    C80.476028,281.165253 90.926445,286.653992 101.972214,291.038757
    C126.121613,300.625092 151.386856,304.075439 177.203659,304.151672
    C204.721344,304.232880 231.631744,300.657288 257.192474,289.879730
    C267.356873,285.593964 276.921814,280.206360 284.247925,271.629608
    C288.073822,267.150543 290.707458,262.166534 290.657928,255.961441
    C284.149689,260.048431 278.108276,264.454742 271.545532,267.854736
    C246.547852,280.805389 219.508560,285.725952 191.700684,287.070801
    C159.829910,288.612244 128.564346,285.472687 97.726059,273.878265
M72.047424,323.483673
    C70.099739,322.029846 68.152046,320.576019 65.770363,318.798218
    C65.648041,327.639862 69.663620,334.153992 75.751137,338.609558
    C83.722481,344.443939 92.096573,350.400909 101.222931,353.871277
    C148.094162,371.694366 195.787064,371.873688 243.691055,358.164551
    C258.020508,354.063782 271.463623,347.889618 282.270538,337.176086
    C287.192139,332.296967 290.685028,326.617798 290.673004,318.894073
    C289.784973,319.401154 289.180939,319.638336 288.707336,320.032318
    C278.345032,328.652679 266.523071,334.650391 253.856018,338.948944
    C215.531006,351.954529 176.315674,353.776550 136.598114,347.517578
    C113.755669,343.917877 91.908180,337.332367 72.047424,323.483673
M114.603889,216.037598
    C97.044205,211.143051 80.500793,204.146774 65.891273,191.927933
    C65.470245,199.840500 69.111832,205.267624 73.761826,210.111008
    C81.884010,218.570984 92.090820,223.796646 102.834038,228.016800
    C122.532181,235.754639 143.115417,239.222961 164.153427,240.402573
    C193.862381,242.068314 222.990356,239.122269 251.100494,228.935303
    C263.205566,224.548477 274.648071,218.798462 283.530090,209.062454
    C287.790710,204.392227 290.758972,199.112457 290.646790,192.603973
    C283.952789,196.786316 277.725494,201.266754 270.991119,204.773346
    C251.266479,215.043991 229.949997,219.915878 207.994690,222.370789
    C176.759628,225.863312 145.865250,224.291733 114.603889,216.037598
M290.760437,288.235260
    C290.632721,288.004272 290.450653,287.559937 290.385986,287.576385
    C289.918610,287.695496 289.392944,287.808777 289.035706,288.104858
    C277.860413,297.367218 265.088837,303.654602 251.379135,308.101013
    C213.026398,320.539673 173.924347,321.968231 134.406509,315.447601
    C111.899033,311.733826 90.437943,304.968994 71.610832,291.470490
    C69.824463,290.189728 68.078232,288.852966 65.686455,287.076569
    C65.926079,296.604309 70.195686,303.365540 76.742157,307.799408
    C85.749344,313.899902 95.131599,320.112732 105.257881,323.777740
    C145.777496,338.442871 187.338165,339.259979 229.226974,330.402985
    C245.929932,326.871307 261.920166,321.303833 275.847565,311.044373
    C283.375153,305.499268 289.652649,298.936371 290.760437,288.235260
M65.928764,227.483978
    C67.047104,234.456024 70.807838,240.163864 76.297409,243.993439
    C84.279831,249.562042 92.468628,255.451828 101.458832,258.855286
    C148.040619,276.489990 195.435791,276.625641 243.069138,263.269196
    C256.115204,259.611053 268.379150,254.034576 278.880798,245.222839
    C285.390533,239.760635 290.434174,233.356216 290.741669,223.803802
    C286.177155,226.957382 282.118286,230.086670 277.747131,232.692017
    C273.192291,235.406860 268.487671,237.987061 263.588104,239.988678
    C220.485718,257.597351 175.923950,259.415802 130.667099,251.377518
    C107.237679,247.216110 85.092293,239.465240 65.847626,223.648544
    C65.847626,225.124146 65.847626,225.905518 65.928764,227.483978
M93.462456,182.139206
    C86.521172,179.999496 79.579895,177.859802 72.638611,175.720093
    C72.459427,176.103561 72.280235,176.487030 72.101044,176.870499
    C74.409523,178.974045 76.603157,181.222687 79.046211,183.156204
    C90.056419,191.870010 102.792374,197.119354 116.140099,200.877502
    C150.217667,210.472244 184.781433,211.472290 219.548798,205.642441
    C237.495621,202.633102 254.935150,197.661911 270.529907,187.850250
    C275.475983,184.738373 279.866302,180.743256 284.510925,177.152313
    C284.268250,176.680710 284.025574,176.209106 283.782867,175.737503
    C221.215500,196.960907 158.023163,198.843613 93.462456,182.139206
z"/>
<path fill="#fff" opacity="1.000000" stroke="none"
    d="
M88.368965,29.284454
    C128.903259,16.564438 169.955887,13.585009 211.669861,17.751709
    C238.651627,20.446848 264.840179,26.228807 289.436829,38.029766
    C300.773560,43.468880 311.270538,50.153770 319.514771,59.865749
    C331.107300,73.522095 331.353821,88.019928 320.095428,101.971016
    C311.640472,112.448166 300.438568,119.298790 288.485107,124.999283
    C264.626587,136.377151 239.193176,142.034409 213.104874,144.731705
    C175.373550,148.632797 137.926804,146.827148 101.129074,136.992310
    C80.113190,131.375427 59.960880,123.730888 43.231812,109.153595
    C40.363171,106.653938 37.701588,103.825081 35.367191,100.819847
    C25.656879,88.319092 25.356295,75.505386 34.620659,62.699661
    C37.738701,58.389729 38.793308,54.455261 34.567165,49.687923
    C39.541870,45.827339 44.312412,41.998775 49.271828,38.432903
    C49.907734,37.975681 51.845436,38.524036 52.633724,39.222858
    C56.073158,42.271942 59.456280,41.628159 63.253048,39.935177
    C71.436317,36.286270 79.741570,32.910950 88.368965,29.284454
M221.059631,84.577797
    C220.728424,77.338448 216.435303,72.677528 210.754974,69.025459
    C202.988205,64.031921 194.219315,62.145199 185.196960,61.441261
    C171.719284,60.389725 158.498566,61.540806 146.535400,68.493774
    C131.226181,77.391464 131.141388,93.339218 146.776443,101.689316
    C153.348160,105.199020 161.054871,107.274727 168.483917,108.339256
    C182.519196,110.350418 196.444855,109.083527 209.214645,102.089073
    C215.741943,98.513847 220.726364,93.549332 221.059631,84.577797
z"/>
<path fill="#fff" opacity="1.000000" stroke="none"
    d="
M182.999725,466.201904
    C146.587448,466.607422 111.443253,462.250580 77.760841,449.074921
    C65.305412,444.202667 53.527447,438.077667 43.429810,429.135529
    C41.068661,427.044586 38.824699,424.779480 36.782394,422.377258
    C25.144981,408.688934 24.842827,394.108917 36.293312,380.345490
    C40.174301,375.680542 44.973335,371.779327 49.352837,367.529114
    C49.803532,367.728149 50.254223,367.927185 50.704914,368.126251
    C50.704914,372.013000 50.881390,375.909271 50.672756,379.784790
    C49.967812,392.879608 55.238361,403.397491 64.484253,412.192230
    C77.221100,424.307617 92.710899,431.556885 109.341774,436.222504
    C160.457474,450.562561 211.284348,450.216797 261.163635,430.969696
    C270.918945,427.205383 280.077118,421.205017 288.529114,414.916687
    C300.554047,405.970001 306.704712,393.520325 305.818970,378.104340
    C305.631836,374.847290 305.791718,371.570312 305.791718,367.386200
    C315.571625,374.397766 323.432770,381.774445 327.023743,392.671478
    C329.868164,401.303009 328.193329,409.427734 323.476715,417.014069
    C318.258759,425.406708 310.894531,431.605133 302.692291,436.851807
    C282.611969,449.696411 260.335327,457.008667 237.079498,460.748138
    C219.385376,463.593292 201.371262,464.448547 182.999725,466.201904
z"/>
<path fill="#fff" opacity="1.000000" stroke="none"
    d="
M284.346436,398.302124
    C273.327942,410.471191 259.296967,416.997040 244.354980,421.353088
    C196.660233,435.257629 149.142273,434.880920 102.187561,417.863800
    C91.350037,413.936096 81.259277,408.356384 73.271416,399.729309
    C68.938232,395.049347 65.521721,389.851379 65.871574,383.049683
    C72.934448,387.353424 79.633255,391.913116 86.769196,395.634674
    C92.628067,398.690186 98.950203,400.901672 105.172379,403.202240
    C110.146126,405.041199 114.478722,403.154297 115.832985,398.999939
    C117.233398,394.704010 114.934395,391.221283 109.926178,389.018738
    C101.435692,385.284729 92.545273,382.073822 84.829422,377.086121
    C78.589523,373.052460 73.469574,367.033875 68.585068,361.274750
    C66.506104,358.823578 66.294357,354.788727 64.829613,350.209045
    C103.610596,378.531708 146.530991,383.704224 190.971771,382.122864
    C218.963425,381.126831 246.186783,376.047974 271.348480,362.994171
    C277.925812,359.581848 284.002136,355.203735 290.607758,351.082520
    C290.769531,357.367096 287.996246,362.420380 284.053680,366.919586
    C275.465302,376.720520 264.187347,382.428131 252.299118,386.936279
    C221.808792,398.498566 190.110275,400.660828 157.916962,398.467682
    C153.271118,398.151154 148.658020,397.345062 144.011719,397.046631
    C139.285721,396.743042 136.046661,399.502136 135.688644,403.724823
    C135.328918,407.967651 138.005844,411.347626 142.644577,411.905975
    C181.647278,416.600616 220.196106,415.177887 257.227783,400.833679
    C268.079102,396.630432 277.850555,389.638092 288.111267,383.913910
    C288.940887,383.451111 289.726593,382.909515 290.532684,382.404541
    C291.016815,382.691132 291.500946,382.977753 291.985077,383.264374
    C289.518921,388.187988 287.052795,393.111633 284.346436,398.302124
z"/>
<path fill="#fff" opacity="1.000000" stroke="none"
    d="
M378.724182,224.293213
    C388.997955,236.695419 393.812286,250.642899 394.079468,266.390167
    C394.417969,286.339508 409.660706,302.279907 429.644165,303.120209
    C453.155243,304.108887 471.068420,313.813049 480.999847,335.544098
    C483.953827,342.007782 485.720886,349.589539 485.814362,356.688202
    C486.294891,393.175293 486.068665,429.671875 486.047485,466.165161
    C486.044067,472.057281 482.563904,475.946320 477.635101,475.854370
    C472.876678,475.765533 469.462677,472.092377 469.420593,466.404236
    C469.304626,450.741241 469.383026,435.076843 469.370941,419.413025
    C469.364685,411.297272 468.788177,410.480927 460.999115,407.641113
    C460.999115,403.963898 461.021942,400.161346 460.992889,396.359253
    C460.962128,392.331116 459.950623,388.031342 465.956482,386.853119
    C467.277618,386.593964 469.003448,383.825439 469.014740,382.201813
    C469.089844,371.396271 470.057648,360.363739 468.252686,349.830383
    C465.175903,331.875427 449.990570,320.601532 430.924835,320.021301
    C407.606445,319.311646 387.849548,305.270386 380.514709,283.516754
    C378.577454,277.771271 377.712189,271.509857 377.322754,265.423401
    C375.500580,236.943542 356.256653,218.548416 327.605896,218.348328
    C320.487152,218.298599 313.367737,218.340912 306.023010,218.340912
    C306.023010,212.794510 306.023010,207.679031 306.023010,202.311096
    C332.953064,200.099808 358.980713,201.042053 378.724182,224.293213
z"/>
<path fill="#fff" opacity="1.000000" stroke="none"
    d="
M140.869659,176.095810
    C109.975441,172.280533 80.375473,165.604263 54.096027,148.874924
    C47.589371,144.732819 41.586853,139.378357 36.485020,133.584091
    C32.467335,129.021118 30.190664,122.925209 26.864462,117.019775
    C28.521505,116.751312 28.852760,116.600388 28.953693,116.695038
    C48.450039,134.980209 72.196510,145.206070 97.586884,151.610641
    C150.699799,165.008011 204.029800,165.100525 257.240875,151.983612
    C279.190918,146.572754 299.979736,138.258286 318.188599,124.440994
    C321.456421,121.961311 324.476135,119.154617 327.610382,116.498894
    C328.085999,116.779114 328.561615,117.059334 329.037201,117.339554
    C326.284515,122.502090 324.136414,128.119446 320.661530,132.738708
    C311.601196,144.782837 298.831085,152.043121 285.367493,158.116821
    C260.656189,169.264557 234.472809,174.521088 207.658493,176.928833
    C185.538361,178.915039 163.405075,178.773056 140.869659,176.095810
z"/>
<path fill="#fff" opacity="1.000000" stroke="none"
    d="
M29.074465,436.919189
    C63.843254,466.818329 105.995522,476.260284 149.999557,480.010254
    C189.473953,483.374237 228.505341,480.550415 266.647156,469.100494
    C289.157104,462.343231 310.183289,452.749146 327.485474,436.233612
    C327.884552,436.466339 328.283630,436.699066 328.682709,436.931793
    C326.666077,441.298737 325.117920,445.967407 322.538666,449.971985
    C316.544342,459.279083 307.802094,465.706299 298.367096,471.197937
    C277.505219,483.340637 254.671005,489.843811 231.098846,493.707520
    C189.402328,500.541931 147.823486,499.634186 106.619217,489.878632
    C88.098907,485.493744 70.024475,479.502716 54.183262,468.686249
    C47.003723,463.783997 40.585472,457.509277 34.723888,451.039886
    C31.663218,447.661804 30.557652,442.512329 28.708336,437.660645
    C28.847630,437.158417 29.074465,436.919189 29.074465,436.919189
z"/>
<path fill="#fff" opacity="1.000000" stroke="none"
    d="
M98.098846,273.981750
    C128.564346,285.472687 159.829910,288.612244 191.700684,287.070801
    C219.508560,285.725952 246.547852,280.805389 271.545532,267.854736
    C278.108276,264.454742 284.149689,260.048431 290.657928,255.961441
    C290.707458,262.166534 288.073822,267.150543 284.247925,271.629608
    C276.921814,280.206360 267.356873,285.593964 257.192474,289.879730
    C231.631744,300.657288 204.721344,304.232880 177.203659,304.151672
    C151.386856,304.075439 126.121613,300.625092 101.972214,291.038757
    C90.926445,286.653992 80.476028,281.165253 72.468849,272.050171
    C68.515701,267.550049 65.391449,262.581329 65.871132,257.077118
    C76.437454,262.650085 87.081757,268.264160 98.098846,273.981750
z"/>
<path fill="#fff" opacity="1.000000" stroke="none"
    d="
M72.343346,323.696991
    C91.908180,337.332367 113.755669,343.917877 136.598114,347.517578
    C176.315674,353.776550 215.531006,351.954529 253.856018,338.948944
    C266.523071,334.650391 278.345032,328.652679 288.707336,320.032318
    C289.180939,319.638336 289.784973,319.401154 290.673004,318.894073
    C290.685028,326.617798 287.192139,332.296967 282.270538,337.176086
    C271.463623,347.889618 258.020508,354.063782 243.691055,358.164551
    C195.787064,371.873688 148.094162,371.694366 101.222931,353.871277
    C92.096573,350.400909 83.722481,344.443939 75.751137,338.609558
    C69.663620,334.153992 65.648041,327.639862 65.770363,318.798218
    C68.152046,320.576019 70.099739,322.029846 72.343346,323.696991
z"/>
<path fill="#fff" opacity="1.000000" stroke="none"
    d="
M115.003632,216.120087
    C145.865250,224.291733 176.759628,225.863312 207.994690,222.370789
    C229.949997,219.915878 251.266479,215.043991 270.991119,204.773346
    C277.725494,201.266754 283.952789,196.786316 290.646790,192.603973
    C290.758972,199.112457 287.790710,204.392227 283.530090,209.062454
    C274.648071,218.798462 263.205566,224.548477 251.100494,228.935303
    C222.990356,239.122269 193.862381,242.068314 164.153427,240.402573
    C143.115417,239.222961 122.532181,235.754639 102.834038,228.016800
    C92.090820,223.796646 81.884010,218.570984 73.761826,210.111008
    C69.111832,205.267624 65.470245,199.840500 65.891273,191.927933
    C80.500793,204.146774 97.044205,211.143051 115.003632,216.120087
z"/>
<path fill="#fff" opacity="1.000000" stroke="none"
    d="
M290.749329,288.599457
    C289.652649,298.936371 283.375153,305.499268 275.847565,311.044373
    C261.920166,321.303833 245.929932,326.871307 229.226974,330.402985
    C187.338165,339.259979 145.777496,338.442871 105.257881,323.777740
    C95.131599,320.112732 85.749344,313.899902 76.742157,307.799408
    C70.195686,303.365540 65.926079,296.604309 65.686455,287.076569
    C68.078232,288.852966 69.824463,290.189728 71.610832,291.470490
    C90.437943,304.968994 111.899033,311.733826 134.406509,315.447601
    C173.924347,321.968231 213.026398,320.539673 251.379135,308.101013
    C265.088837,303.654602 277.860413,297.367218 289.035706,288.104858
    C289.392944,287.808777 289.918610,287.695496 290.385986,287.576385
    C290.450653,287.559937 290.632721,288.004272 290.749329,288.599457
z"/>
<path fill="#fff" opacity="1.000000" stroke="none"
    d="
M65.888199,227.085449
    C65.847626,225.905518 65.847626,225.124146 65.847626,223.648544
    C85.092293,239.465240 107.237679,247.216110 130.667099,251.377518
    C175.923950,259.415802 220.485718,257.597351 263.588104,239.988678
    C268.487671,237.987061 273.192291,235.406860 277.747131,232.692017
    C282.118286,230.086670 286.177155,226.957382 290.741669,223.803802
    C290.434174,233.356216 285.390533,239.760635 278.880798,245.222839
    C268.379150,254.034576 256.115204,259.611053 243.069138,263.269196
    C195.435791,276.625641 148.040619,276.489990 101.458832,258.855286
    C92.468628,255.451828 84.279831,249.562042 76.297409,243.993439
    C70.807838,240.163864 67.047104,234.456024 65.888199,227.085449
z"/>
<path fill="#fff" opacity="1.000000" stroke="none"
    d="
M93.850426,182.265900
    C158.023163,198.843613 221.215500,196.960907 283.782867,175.737503
    C284.025574,176.209106 284.268250,176.680710 284.510925,177.152313
    C279.866302,180.743256 275.475983,184.738373 270.529907,187.850250
    C254.935150,197.661911 237.495621,202.633102 219.548798,205.642441
    C184.781433,211.472290 150.217667,210.472244 116.140099,200.877502
    C102.792374,197.119354 90.056419,191.870010 79.046211,183.156204
    C76.603157,181.222687 74.409523,178.974045 72.101044,176.870499
    C72.280235,176.487030 72.459427,176.103561 72.638611,175.720093
    C79.579895,177.859802 86.521172,179.999496 93.850426,182.265900
z"/>
<path fill="#fff" opacity="1.000000" stroke="none"
    d="
M28.733089,437.276978
    C28.488653,437.112610 28.358759,436.829681 28.228863,436.546753
    C28.471613,436.512817 28.714361,436.478851 29.015789,436.682068
    C29.074465,436.919189 28.847630,437.158417 28.733089,437.276978
z"/>
<path fill="#000" opacity="1.000000" stroke="none"
    d="
M221.060059,85.003479
    C220.726364,93.549332 215.741943,98.513847 209.214645,102.089073
    C196.444855,109.083527 182.519196,110.350418 168.483917,108.339256
    C161.054871,107.274727 153.348160,105.199020 146.776443,101.689316
    C131.141388,93.339218 131.226181,77.391464 146.535400,68.493774
    C158.498566,61.540806 171.719284,60.389725 185.196960,61.441261
    C194.219315,62.145199 202.988205,64.031921 210.754974,69.025459
    C216.435303,72.677528 220.728424,77.338448 221.060059,85.003479
M151.621948,87.050713
    C166.597870,97.266129 197.711639,96.127502 206.338882,84.496086
    C204.475601,83.229462 202.789124,81.473526 200.748367,80.814255
    C195.418655,79.092506 190.010513,77.264069 184.494507,76.543800
    C174.118515,75.188942 163.905823,76.451103 154.470505,81.326530
    C152.690811,82.246132 149.201447,82.925537 151.621948,87.050713
z"/>
<path fill="#fff" opacity="1.000000" stroke="none"
    d="
M151.363052,86.812881
    C149.201447,82.925537 152.690811,82.246132 154.470505,81.326530
    C163.905823,76.451103 174.118515,75.188942 184.494507,76.543800
    C190.010513,77.264069 195.418655,79.092506 200.748367,80.814255
    C202.789124,81.473526 204.475601,83.229462 206.338882,84.496086
    C197.711639,96.127502 166.597870,97.266129 151.363052,86.812881
z"/>
</svg>
